<svg width="521" height="484" viewBox="0 0 521 484" fill="none" xmlns="http://www.w3.org/2000/svg">
<circle cx="241.999" cy="241.999" r="64.6429" stroke="#1A1B1C"/>
<circle cx="242" cy="242" r="57" fill="#1A1B1C"/>
<path d="M278.511 205.578C269.175 196.219 256.264 190.428 242 190.428C238.699 190.428 235.471 190.738 232.342 191.331C237.679 200.159 257.177 231.108 260.933 236.613C261.663 237.683 262.959 235.558 270.811 220.421L278.511 205.578Z" fill="#FCFCFC"/>
<path d="M194.04 223.004C200.179 207.516 213.604 195.709 230.087 191.811C232.038 194.738 235.766 200.521 239.839 206.961L250.188 223.325H220.637C206.376 223.325 198.042 223.232 194.04 223.004Z" fill="#FCFCFC"/>
<path d="M201.619 274.08C194.614 265.274 190.429 254.126 190.429 242C190.429 236.189 191.39 230.603 193.161 225.392H209.774C229.205 225.392 229.647 225.422 228.953 226.721C227.577 229.297 207.156 264.646 201.619 274.08Z" fill="#FCFCFC"/>
<path d="M252.019 292.599C248.778 293.237 245.428 293.571 242 293.571C226.567 293.571 212.717 286.792 203.266 276.049C205.308 271.512 210.627 262.041 219.839 246.483C220.705 245.019 221.583 243.99 221.789 244.197C221.996 244.403 229.263 255.992 237.94 269.95L252.019 292.599Z" fill="#FCFCFC"/>
<path d="M290.65 259.154C284.886 275.499 271.118 288.069 254.053 292.155C249.352 284.906 233.743 259.834 233.743 259.446C233.743 259.285 247.232 259.154 263.719 259.154H290.65Z" fill="#FCFCFC"/>
<path d="M279.89 207.014C288.383 216.207 293.572 228.497 293.572 242C293.572 247.502 292.71 252.803 291.114 257.776H273.961C262.815 257.776 253.696 257.607 253.696 257.401C253.696 256.976 276.017 214.076 279.89 207.014Z" fill="#FCFCFC"/>
<path d="M362.988 145L359.082 135.2H358.004L354.098 145H355.344L356.366 142.354H360.734L361.742 145H362.988ZM358.55 136.67L360.314 141.29H356.772L358.55 136.67ZM370.19 145V143.922H365.29V135.2H364.1V145H370.19ZM377.519 145V143.922H372.619V135.2H371.429V145H377.519ZM382.714 145.112C385.472 145.112 387.53 142.984 387.53 140.1C387.53 137.216 385.472 135.088 382.714 135.088C379.956 135.088 377.912 137.216 377.912 140.1C377.912 142.984 379.956 145.112 382.714 145.112ZM382.714 144.034C380.656 144.034 379.144 142.354 379.144 140.1C379.144 137.846 380.656 136.166 382.714 136.166C384.772 136.166 386.298 137.846 386.298 140.1C386.298 142.354 384.772 144.034 382.714 144.034ZM392.278 145L394.714 137.034L397.136 145H398.368L401.364 135.2H400.146L397.71 143.194L395.246 135.2H394.182L391.704 143.194L389.296 135.2H388.05L391.088 145H392.278ZM414.011 145L410.105 135.2H409.027L405.121 145H406.367L407.389 142.354H411.757L412.765 145H414.011ZM409.573 136.67L411.337 141.29H407.795L409.573 136.67ZM415.123 144.244C415.123 143.899 415.207 143.656 415.375 143.516C415.543 143.376 415.744 143.306 415.977 143.306C416.22 143.306 416.425 143.376 416.593 143.516C416.771 143.656 416.859 143.899 416.859 144.244C416.859 144.58 416.771 144.823 416.593 144.972C416.425 145.121 416.22 145.196 415.977 145.196C415.744 145.196 415.543 145.121 415.375 144.972C415.207 144.823 415.123 144.58 415.123 144.244ZM420.087 145V135.2H418.897V145H420.087ZM422.137 144.244C422.137 143.899 422.221 143.656 422.389 143.516C422.557 143.376 422.758 143.306 422.991 143.306C423.234 143.306 423.439 143.376 423.607 143.516C423.784 143.656 423.873 143.899 423.873 144.244C423.873 144.58 423.784 144.823 423.607 144.972C423.439 145.121 423.234 145.196 422.991 145.196C422.758 145.196 422.557 145.121 422.389 144.972C422.221 144.823 422.137 144.58 422.137 144.244ZM358.508 169V160.278H361.63V159.2H354.168V160.278H357.304V169H358.508ZM366.499 169.112C369.257 169.112 371.315 166.984 371.315 164.1C371.315 161.216 369.257 159.088 366.499 159.088C363.741 159.088 361.697 161.216 361.697 164.1C361.697 166.984 363.741 169.112 366.499 169.112ZM366.499 168.034C364.441 168.034 362.929 166.354 362.929 164.1C362.929 161.846 364.441 160.166 366.499 160.166C368.557 160.166 370.083 161.846 370.083 164.1C370.083 166.354 368.557 168.034 366.499 168.034ZM379.433 169.112C381.477 169.112 383.017 168.104 383.017 166.326C383.017 162.644 377.249 164.198 377.249 161.692C377.249 160.754 378.033 160.166 379.363 160.166C380.679 160.166 381.533 160.88 381.645 161.986H382.821C382.681 160.222 381.323 159.088 379.363 159.088C377.403 159.088 376.045 160.138 376.045 161.692C376.045 165.192 381.771 163.806 381.771 166.326C381.771 167.516 380.791 168.034 379.433 168.034C377.907 168.034 377.011 167.152 376.885 165.794H375.709C375.835 167.796 377.235 169.112 379.433 169.112ZM388.837 169.112C391.007 169.112 392.757 167.782 392.967 165.948H391.735C391.595 167.152 390.363 168.034 388.837 168.034C386.793 168.034 385.351 166.648 385.351 164.1C385.351 161.552 386.793 160.166 388.837 160.166C390.335 160.166 391.553 161.048 391.721 162.252H392.981C392.715 160.418 390.965 159.088 388.837 159.088C386.401 159.088 384.119 160.712 384.119 164.1C384.119 167.474 386.387 169.112 388.837 169.112ZM402.349 169L398.443 159.2H397.365L393.459 169H394.705L395.727 166.354H400.095L401.103 169H402.349ZM397.911 160.67L399.675 165.29H396.133L397.911 160.67ZM404.652 169V161.048L409.692 169H411.064V159.2H409.874V167.18L404.82 159.2H403.462V169H404.652ZM420.159 169V164.898L423.631 159.2H422.273L419.571 163.75L416.855 159.2H415.497L418.969 164.898V169H420.159ZM428.365 169.112C431.123 169.112 433.181 166.984 433.181 164.1C433.181 161.216 431.123 159.088 428.365 159.088C425.607 159.088 423.563 161.216 423.563 164.1C423.563 166.984 425.607 169.112 428.365 169.112ZM428.365 168.034C426.307 168.034 424.795 166.354 424.795 164.1C424.795 161.846 426.307 160.166 428.365 160.166C430.423 160.166 431.949 161.846 431.949 164.1C431.949 166.354 430.423 168.034 428.365 168.034ZM438.312 169.112C440.538 169.112 442.008 167.782 442.008 165.64V159.2H440.846V165.696C440.846 167.138 439.838 168.034 438.312 168.034C436.8 168.034 435.792 167.138 435.792 165.696V159.2H434.616V165.64C434.616 167.782 436.086 169.112 438.312 169.112ZM449.209 164.352C450.133 163.918 450.749 163.148 450.749 162.07C450.749 160.362 449.559 159.2 447.627 159.2H443.917V169H445.107V165.01H447.767C448.691 165.01 449.307 165.682 449.363 166.634L449.531 169H450.679L450.511 166.564C450.441 165.57 449.979 164.772 449.209 164.352ZM447.627 160.264C448.999 160.264 449.517 161.104 449.517 162.07C449.517 163.036 448.999 163.932 447.627 163.932H445.107V160.264H447.627ZM457.494 169V164.59H461.512V163.512H457.494V160.278H462.436V159.2H456.304V169H457.494ZM470.9 169L466.994 159.2H465.916L462.01 169H463.256L464.278 166.354H468.646L469.654 169H470.9ZM466.462 160.67L468.226 165.29H464.684L466.462 160.67ZM475.982 169.112C478.152 169.112 479.902 167.782 480.112 165.948H478.88C478.74 167.152 477.508 168.034 475.982 168.034C473.938 168.034 472.496 166.648 472.496 164.1C472.496 161.552 473.938 160.166 475.982 160.166C477.48 160.166 478.698 161.048 478.866 162.252H480.126C479.86 160.418 478.11 159.088 475.982 159.088C473.546 159.088 471.264 160.712 471.264 164.1C471.264 167.474 473.532 169.112 475.982 169.112ZM487.91 169V167.922H482.814V164.478H486.832V163.4H482.814V160.278H487.756V159.2H481.624V169H487.91Z" fill="#1A1B1C"/>
<path d="M282 203L344 148" stroke="#1A1B1C"/>
<circle cx="345.5" cy="146.5" r="2" stroke="#1A1B1C"/>
<path opacity="0.3" d="M242 1L483 242L242 483L1 242L242 1Z" stroke="#A0A4AB" stroke-width="2" stroke-linecap="round" stroke-linejoin="round" stroke-dasharray="0.1 8"/>
<path opacity="0.6" d="M242 19.8281L464.172 242L242 464.172L19.8281 242L242 19.8281Z" stroke="#A0A4AB" stroke-width="2" stroke-linecap="round" stroke-linejoin="round" stroke-dasharray="0.1 8"/>
<path d="M242 39.4092L444.59 242L242 444.59L39.4092 242L242 39.4092Z" stroke="#A0A4AB" stroke-width="2" stroke-linecap="round" stroke-linejoin="round" stroke-dasharray="0.1 8"/>
</svg>
